<svg xmlns="http://www.w3.org/2000/svg" viewBox="0 0 512 512">
  <defs>
    <linearGradient id="bg" x1="0" y1="0" x2="1" y2="1">
      <stop offset="0" stop-color="#3b1e6e"/>
      <stop offset=".5" stop-color="#17123a"/>
      <stop offset="1" stop-color="#4a1350"/>
    </linearGradient>
    <linearGradient id="a" x1="0" y1="0" x2="1" y2="1">
      <stop offset="0" stop-color="#ffd23f"/>
      <stop offset=".5" stop-color="#ff4f9a"/>
      <stop offset="1" stop-color="#22d3ee"/>
    </linearGradient>
  </defs>
  <rect width="512" height="512" rx="112" fill="url(#bg)"/>
  <g transform="rotate(-12 256 256)">
    <rect x="136" y="136" width="240" height="240" rx="52" fill="url(#a)"/>
    <g fill="#17123a">
      <circle cx="196" cy="196" r="26"/>
      <circle cx="316" cy="196" r="26"/>
      <circle cx="256" cy="256" r="26"/>
      <circle cx="196" cy="316" r="26"/>
      <circle cx="316" cy="316" r="26"/>
    </g>
  </g>
  <path d="M256 432c-46-30-84-56-84-92a40 40 0 0 1 84-16 40 40 0 0 1 84 16c0 36-38 62-84 92z" fill="#ff4f9a" opacity=".95"/>
</svg>
